<svg width="893" height="366" xmlns="http://www.w3.org/2000/svg" xmlns:xlink="http://www.w3.org/1999/xlink" overflow="hidden"><defs><clipPath id="clip0"><rect x="208" y="133" width="893" height="366"/></clipPath></defs><g clip-path="url(#clip0)" transform="translate(-208 -133)"><text font-family="DengXian,DengXian_MSFontService,sans-serif" font-weight="400" font-size="24" transform="translate(606.513 192)">招领启事<tspan font-size="24" x="-331.58" y="72">本人于</tspan><tspan fill="#4472C4" font-size="24" x="-259.58" y="72">2022</tspan><tspan fill="#4472C4" font-size="24" x="-208.913" y="72">年</tspan><tspan fill="#4472C4" font-size="24" x="-184.913" y="72">9</tspan><tspan fill="#4472C4" font-size="24" x="-172.247" y="72">月</tspan><tspan fill="#4472C4" font-size="24" x="-148.247" y="72">1</tspan><tspan fill="#4472C4" font-size="24" x="-135.58" y="72">日</tspan>于<tspan fill="#4472C4" font-size="24" x="-87.58" y="72">学校</tspan><tspan fill="#4472C4" font-size="24" x="-39.58" y="72">食堂</tspan>拾到<tspan fill="#4472C4" font-size="24" x="56.42" y="72">一</tspan><tspan fill="#4472C4" font-size="24" x="80.42" y="72">只蓝色书包</tspan>，内有<tspan fill="#4472C4" font-size="24" x="272.42" y="72">10</tspan><tspan fill="#4472C4" font-size="24" x="297.753" y="72">元人民币，一个</tspan><tspan fill="#4472C4" font-size="24" x="-383.58" y="144">笔袋和三本教科书</tspan>。望失主前来认领。<tspan font-size="24" x="-331.58" y="216">联系电话：</tspan><tspan fill="#4472C4" font-size="24" x="-211.58" y="216">911xxxxxxx</tspan><tspan fill="#4472C4" font-size="24" x="407.587" y="256">王二明</tspan><tspan fill="#4472C4" font-size="24" x="331.587" y="285">2022</tspan><tspan fill="#4472C4" font-size="24" x="382.253" y="285">年</tspan><tspan fill="#4472C4" font-size="24" x="406.253" y="285">9</tspan><tspan fill="#4472C4" font-size="24" x="418.92" y="285">月</tspan><tspan fill="#4472C4" font-size="24" x="442.92" y="285">1</tspan><tspan fill="#4472C4" font-size="24" x="455.587" y="285">日</tspan><tspan fill="#FF0000" font-size="24" x="110.966" y="-1">标题居中</tspan><tspan fill="#FF0000" font-size="24" x="-220.428" y="106">时间</tspan><tspan fill="#FF0000" font-size="24" x="-68.4284" y="106">地点</tspan><tspan fill="#FF0000" font-size="24" x="109.572" y="106">丢失物品</tspan><tspan fill="#FF0000" font-size="24" x="-131.944" y="175">交还方式</tspan><tspan fill="#FF0000" font-size="24" x="-81.0346" y="215">联系方式</tspan><tspan fill="#FF0000" font-size="24" x="331.087" y="216">署名</tspan><tspan fill="#FF0000" font-size="24" x="379.087" y="216">&amp;</tspan><tspan fill="#FF0000" font-size="24" x="397.087" y="216">日期</tspan></text></g></svg>