<svg width="841" height="278" xmlns="http://www.w3.org/2000/svg" xmlns:xlink="http://www.w3.org/1999/xlink" overflow="hidden"><defs><clipPath id="clip0"><rect x="242" y="208" width="841" height="278"/></clipPath></defs><g clip-path="url(#clip0)" transform="translate(-242 -208)"><text font-family="DengXian,DengXian_MSFontService,sans-serif" font-weight="400" font-size="24" transform="translate(260.433 311)">本人于<tspan fill="#4472C4" font-size="24" x="72" y="0">2022</tspan><tspan fill="#4472C4" font-size="24" x="122.667" y="0">年</tspan><tspan fill="#4472C4" font-size="24" x="146.667" y="0">9</tspan><tspan fill="#4472C4" font-size="24" x="159.333" y="0">月</tspan><tspan fill="#4472C4" font-size="24" x="183.333" y="0">1</tspan><tspan fill="#4472C4" font-size="24" x="196" y="0">日</tspan>于<tspan fill="#4472C4" font-size="24" x="244" y="0">学校</tspan><tspan fill="#4472C4" font-size="24" x="292" y="0">食堂</tspan>拾到<tspan fill="#4472C4" font-size="24" x="388" y="0">一</tspan><tspan fill="#4472C4" font-size="24" x="414.636" y="0">只蓝色</tspan><tspan fill="#4472C4" font-size="24" x="486.636" y="0">书包</tspan><tspan font-size="24" x="543.919" y="0">，望</tspan>失主前来认领。<tspan font-size="24" x="-3.3515" y="84">联系电话：</tspan><tspan fill="#4472C4" font-size="24" x="116.648" y="84">911xxxxxxx</tspan><tspan fill="#4472C4" font-size="24" x="735.816" y="124">王二明</tspan><tspan fill="#4472C4" font-size="24" x="659.816" y="153">2022</tspan><tspan fill="#4472C4" font-size="24" x="710.482" y="153">年</tspan><tspan fill="#4472C4" font-size="24" x="734.482" y="153">9</tspan><tspan fill="#4472C4" font-size="24" x="747.149" y="153">月</tspan><tspan fill="#4472C4" font-size="24" x="771.149" y="153">1</tspan><tspan fill="#4472C4" font-size="24" x="783.816" y="153">日</tspan><tspan fill="#FF0000" font-size="24" x="442.546" y="-73">标题居中</tspan><tspan fill="#FF0000" font-size="24" x="111.152" y="34">时间</tspan><tspan fill="#FF0000" font-size="24" x="263.152" y="34">地点</tspan><tspan fill="#FF0000" font-size="24" x="441.152" y="34">丢失物品</tspan><tspan fill="#FF0000" font-size="24" x="247.194" y="83">联系方式</tspan><tspan fill="#FF0000" font-size="24" x="659.316" y="84">署名</tspan><tspan fill="#FF0000" font-size="24" x="707.316" y="84">&amp;</tspan><tspan fill="#FF0000" font-size="24" x="725.316" y="84">日期</tspan><tspan font-size="24" x="331.58" y="-72">招领启事</tspan></text></g></svg>