<svg width="457" height="220" xmlns="http://www.w3.org/2000/svg" xmlns:xlink="http://www.w3.org/1999/xlink" overflow="hidden"><defs><clipPath id="clip0"><rect x="397" y="279" width="457" height="220"/></clipPath></defs><g clip-path="url(#clip0)" transform="translate(-397 -279)"><path d="M397.967 280.683 546.633 280.683 546.633 323.35 397.967 323.35Z" fill="#E7E7E7" fill-rule="evenodd"/><path d="M546.633 280.683 699.5 280.683 699.5 323.35 546.633 323.35Z" fill="#E7E7E7" fill-rule="evenodd"/><path d="M699.5 280.683 852.167 280.683 852.167 323.35 699.5 323.35Z" fill="#E7E7E7" fill-rule="evenodd"/><path d="M397.967 323.35 546.633 323.35 546.633 366.55 397.967 366.55Z" fill="#E7E7E7" fill-rule="evenodd"/><path d="M546.633 323.35 699.5 323.35 699.5 366.55 546.633 366.55Z" fill="#E7E7E7" fill-rule="evenodd"/><path d="M699.5 323.35 852.167 323.35 852.167 366.55 699.5 366.55Z" fill="#E7E7E7" fill-rule="evenodd"/><path d="M397.967 366.55 546.633 366.55 546.633 409.75 397.967 409.75Z" fill="#E7E7E7" fill-rule="evenodd"/><path d="M546.633 366.55 699.5 366.55 699.5 409.75 546.633 409.75Z" fill="#E7E7E7" fill-rule="evenodd"/><path d="M699.5 366.55 852.167 366.55 852.167 409.75 699.5 409.75Z" fill="#E7E7E7" fill-rule="evenodd"/><path d="M397.967 409.75 546.633 409.75 546.633 453.883 397.967 453.883Z" fill="#E7E7E7" fill-rule="evenodd"/><path d="M546.633 409.75 699.5 409.75 699.5 453.883 546.633 453.883Z" fill="#E7E7E7" fill-rule="evenodd"/><path d="M699.5 409.75 852.167 409.75 852.167 453.883 699.5 453.883Z" fill="#E7E7E7" fill-rule="evenodd"/><path d="M397.967 453.883 546.633 453.883 546.633 496.55 397.967 496.55Z" fill="#E7E7E7" fill-rule="evenodd"/><path d="M546.633 453.883 699.5 453.883 699.5 496.55 546.633 496.55Z" fill="#E7E7E7" fill-rule="evenodd"/><path d="M699.5 453.883 852.167 453.883 852.167 496.55 699.5 496.55Z" fill="#E7E7E7" fill-rule="evenodd"/><path d="M546.633 280.017 546.633 497.217" stroke="#000000" stroke-width="1.33333" stroke-linejoin="round" stroke-miterlimit="10" fill="none" fill-rule="evenodd"/><path d="M699.5 280.017 699.5 497.217" stroke="#000000" stroke-width="1.33333" stroke-linejoin="round" stroke-miterlimit="10" fill="none" fill-rule="evenodd"/><path d="M397.3 323.35 852.833 323.35" stroke="#000000" stroke-width="1.33333" stroke-linejoin="round" stroke-miterlimit="10" fill="none" fill-rule="evenodd"/><path d="M397.3 366.55 852.833 366.55" stroke="#000000" stroke-width="1.33333" stroke-linejoin="round" stroke-miterlimit="10" fill="none" fill-rule="evenodd"/><path d="M397.3 409.75 852.833 409.75" stroke="#000000" stroke-width="1.33333" stroke-linejoin="round" stroke-miterlimit="10" fill="none" fill-rule="evenodd"/><path d="M397.3 453.883 852.833 453.883" stroke="#000000" stroke-width="1.33333" stroke-linejoin="round" stroke-miterlimit="10" fill="none" fill-rule="evenodd"/><path d="M397.967 280.017 397.967 497.217" stroke="#000000" stroke-width="1.33333" stroke-linejoin="round" stroke-miterlimit="10" fill="none" fill-rule="evenodd"/><path d="M852.167 280.017 852.167 497.217" stroke="#000000" stroke-width="1.33333" stroke-linejoin="round" stroke-miterlimit="10" fill="none" fill-rule="evenodd"/><path d="M397.3 280.683 852.833 280.683" stroke="#000000" stroke-width="1.33333" stroke-linejoin="round" stroke-miterlimit="10" fill="none" fill-rule="evenodd"/><path d="M397.3 496.55 852.833 496.55" stroke="#000000" stroke-width="1.33333" stroke-linejoin="round" stroke-miterlimit="10" fill="none" fill-rule="evenodd"/><text font-family="DengXian,DengXian_MSFontService,sans-serif" font-weight="400" font-size="13" transform="translate(449.393 306)">水<tspan font-size="13" x="29.6667" y="0">4.2</tspan><tspan font-size="13" x="47.4667" y="0">×</tspan><tspan font-size="13" x="56.5667" y="0">10</tspan><tspan font-size="9" x="71.1" y="-4">3</tspan><tspan font-size="13" x="143.233" y="0">砂</tspan><tspan font-size="13" x="157.033" y="0">石</tspan><tspan font-size="13" x="178.7" y="0">0.92</tspan><tspan font-size="13" x="204.033" y="0">×</tspan><tspan font-size="13" x="213.2" y="0">10</tspan><tspan font-size="9" x="227.867" y="-4">3</tspan><tspan font-size="13" x="285.533" y="0">铁</tspan>、<tspan font-size="13" x="313.467" y="0">钢</tspan><tspan font-size="13" x="335.133" y="0">0.46</tspan><tspan font-size="13" x="360.467" y="0">×</tspan><tspan font-size="13" x="369.633" y="0">10</tspan><tspan font-size="9" x="384.3" y="-4">3</tspan><tspan font-size="13" x="-0.0666504" y="43">冰</tspan><tspan font-size="13" x="29.6" y="43">2.1</tspan><tspan font-size="13" x="47.4" y="43">×</tspan><tspan font-size="13" x="56.5" y="43">10</tspan><tspan font-size="9" x="71.0334" y="39">3</tspan><tspan font-size="13" x="143.633" y="43">玻璃</tspan><tspan font-size="13" x="179.233" y="43">0.67</tspan><tspan font-size="13" x="204.3" y="43">×</tspan><tspan font-size="13" x="213.4" y="43">10</tspan><tspan font-size="9" x="227.933" y="39">3</tspan><tspan font-size="13" x="299.167" y="43">铜</tspan><tspan font-size="13" x="329.1" y="43">0.39</tspan><tspan font-size="13" x="354.167" y="43">×</tspan><tspan font-size="13" x="363.267" y="43">10</tspan><tspan font-size="9" x="377.8" y="39">3</tspan><tspan font-size="13" x="-3.10004" y="86">煤油</tspan><tspan font-size="13" x="32.2333" y="86">2.1</tspan>×<tspan font-size="13" x="59.4" y="86">10</tspan><tspan font-size="9" x="74.0666" y="82">3</tspan><tspan font-size="13" x="145.067" y="86">橡</tspan><tspan font-size="13" x="158.867" y="86">胶</tspan><tspan font-size="13" x="184.533" y="86">1.7</tspan>×<tspan font-size="13" x="211.7" y="86">10</tspan><tspan font-size="9" x="226.367" y="82">3</tspan><tspan font-size="13" x="288.8" y="86">水银</tspan><tspan font-size="13" x="332.133" y="86">0.14</tspan><tspan font-size="13" x="357.467" y="86">×</tspan><tspan font-size="13" x="366.633" y="86">10</tspan><tspan font-size="9" x="381.3" y="82">3</tspan><tspan font-size="13" x="-2.90005" y="130">酒精</tspan><tspan font-size="13" x="32.7" y="130">2.4</tspan><tspan font-size="13" x="50.4999" y="130">×</tspan><tspan font-size="13" x="59.5999" y="130">10</tspan><tspan font-size="9" x="74.1333" y="126">3</tspan><tspan font-size="13" x="139.167" y="130">水蒸气</tspan><tspan font-size="13" x="183.1" y="130">1.88</tspan>×<tspan font-size="13" x="216.267" y="130">10</tspan><tspan font-size="9" x="230.4" y="126">3</tspan><tspan font-size="13" x="300.867" y="130">铝</tspan><tspan font-size="13" x="334.733" y="130">0.9</tspan><tspan font-size="13" x="352.533" y="130">×</tspan><tspan font-size="13" x="361.633" y="130">10</tspan><tspan font-size="9" x="376.167" y="126">3</tspan><tspan font-size="13" x="-3.20001" y="173">甘</tspan><tspan font-size="13" x="10.6" y="173">油</tspan><tspan font-size="13" x="32.2667" y="173">2.5</tspan>×<tspan font-size="13" x="59.4333" y="173">10</tspan><tspan font-size="9" x="74.1" y="169">3</tspan><tspan font-size="13" x="136.6" y="173">干</tspan>泥土<tspan font-size="13" x="182" y="173">0.84</tspan><tspan font-size="13" x="207.333" y="173">×</tspan><tspan font-size="13" x="216.5" y="173">10</tspan><tspan font-size="9" x="231.167" y="169">3</tspan><tspan font-size="13" x="299.233" y="173">铅</tspan><tspan font-size="13" x="329.033" y="173">0.13</tspan><tspan font-size="13" x="354.1" y="173">×</tspan><tspan font-size="13" x="363.2" y="173">10</tspan><tspan font-size="9" x="377.733" y="169">3</tspan></text></g></svg>