<svg width="518" height="137" xmlns="http://www.w3.org/2000/svg" xmlns:xlink="http://www.w3.org/1999/xlink" overflow="hidden"><defs><clipPath id="clip0"><rect x="152" y="579" width="518" height="137"/></clipPath></defs><g clip-path="url(#clip0)" transform="translate(-152 -579)"><path d="M221.967 671 175 671 175 629 221.967 629 221.967 629.494 176 629.494 175.5 629.989 176 629.989 176 670.011 175.5 670.011 176 670.505 221.967 670.505 221.967 671Z" fill-rule="evenodd"/><path d="M176 629.989 175.5 629.989 176 629.494 176 629.989Z" fill-rule="evenodd"/><path d="M220.967 629.989 176 629.989 176 629.494 220.967 629.494 220.967 629.989Z" fill-rule="evenodd"/><path d="M220.967 670.505 220.967 629.494 221.467 629.989 221.967 629.989 221.967 670.011 221.467 670.011 220.967 670.505Z" fill-rule="evenodd"/><path d="M221.967 629.989 221.467 629.989 220.967 629.494 221.967 629.494 221.967 629.989Z" fill-rule="evenodd"/><path d="M176 670.505 175.5 670.011 176 670.011 176 670.505Z" fill-rule="evenodd"/><path d="M220.967 670.505 176 670.505 176 670.011 220.967 670.011 220.967 670.505Z" fill-rule="evenodd"/><path d="M221.967 670.505 220.967 670.505 221.467 670.011 221.967 670.011 221.967 670.505Z" fill-rule="evenodd"/><path d="M152 671 244 671" stroke="#000000" stroke-width="2" stroke-linejoin="round" stroke-miterlimit="10" fill="none" fill-rule="evenodd"/><path d="M634.943 641.956 588 641.956 588 600 634.943 600 634.943 600.494 589 600.494 588.5 600.989 589 600.989 589 640.967 588.5 640.967 589 641.462 634.943 641.462 634.943 641.956Z" fill-rule="evenodd"/><path d="M589 600.989 588.5 600.989 589 600.494 589 600.989Z" fill-rule="evenodd"/><path d="M633.943 600.989 589 600.989 589 600.494 633.943 600.494 633.943 600.989Z" fill-rule="evenodd"/><path d="M633.943 641.462 633.943 600.494 634.443 600.989 634.943 600.989 634.943 640.967 634.443 640.967 633.943 641.462Z" fill-rule="evenodd"/><path d="M634.943 600.989 634.443 600.989 633.943 600.494 634.943 600.494 634.943 600.989Z" fill-rule="evenodd"/><path d="M589 641.462 588.5 640.967 589 640.967 589 641.462Z" fill-rule="evenodd"/><path d="M633.943 641.462 589 641.462 589 640.967 633.943 640.967 633.943 641.462Z" fill-rule="evenodd"/><path d="M634.943 641.462 633.943 641.462 634.443 640.967 634.943 640.967 634.943 641.462Z" fill-rule="evenodd"/><path d="M589 580 589 673" stroke="#000000" stroke-width="2" stroke-linejoin="round" stroke-miterlimit="10" fill="none" fill-rule="evenodd"/><path d="M642.892 625 635 621 642.892 617 642.892 620.5 640.919 620.5 640.919 621.5 642.892 621.5 642.892 625Z" fill-rule="evenodd"/><path d="M642.892 621.5 640.919 621.5 640.919 620.5 642.892 620.5 642.892 621.5Z" fill-rule="evenodd"/><path d="M668.991 621.5 642.892 621.5 642.892 620.5 668.991 620.5 668.991 621.5Z" fill-rule="evenodd"/><path d="M450.468 652.959 450 610.513 497.49 610 497.496 610.512 496.486 610.512 496.491 611.003 451.017 611.003 450.516 611.508 451.022 611.508 451.468 651.948 450.963 651.953 451.474 652.448 497.713 652.448 450.468 652.959Z" fill-rule="evenodd"/><path d="M496.491 611.011 496.486 610.512 496.997 611.005 496.491 611.011Z" fill-rule="evenodd"/><path d="M497.954 651.956 496.943 651.956 497.443 651.451 496.937 651.451 496.491 611.011 496.997 611.005 496.486 610.512 497.496 610.512 497.949 651.451 497.443 651.451 496.937 651.456 497.949 651.456 497.954 651.956Z" fill-rule="evenodd"/><path d="M450.516 611.508 451.017 611.003 451.022 611.502 450.516 611.508Z" fill-rule="evenodd"/><path d="M451.022 611.502 451.017 611.003 496.491 611.003 451.022 611.502Z" fill-rule="evenodd"/><path d="M451.022 611.508 450.516 611.508 451.022 611.502Z" fill-rule="evenodd"/><path d="M496.943 651.956 496.937 651.456 497.443 651.451 496.943 651.956Z" fill-rule="evenodd"/><path d="M497.713 652.448 451.474 652.448 451.468 651.948 496.937 651.456 496.943 651.956 497.954 651.956 497.959 652.445 497.713 652.448Z" fill-rule="evenodd"/><path d="M451.474 652.448 450.963 651.953 451.468 651.948 451.474 652.448Z" fill-rule="evenodd"/><path d="M428.5 611.5 520.449 611.5" stroke="#000000" stroke-width="3.00525" stroke-linejoin="round" stroke-miterlimit="10" fill="none" fill-rule="evenodd"/><path d="M473.5 659.966 470 659.966 474 652 477 657.974 473.5 657.974 473.5 659.966Z" fill-rule="evenodd"/><path d="M474.5 682.952 473.5 682.952 473.5 657.974 474.5 657.974 474.5 682.952Z" fill-rule="evenodd"/><path d="M478 659.966 474.5 659.966 474.5 657.974 477 657.974 478 659.966Z" fill-rule="evenodd"/><path d="M347.956 672.967 301 672.967 301 631 347.956 631 347.956 631.494 302 631.494 301.5 631.989 302 631.989 302 671.978 301.5 671.978 302 672.472 347.956 672.472 347.956 672.967Z" fill-rule="evenodd"/><path d="M302 631.989 301.5 631.989 302 631.494 302 631.989Z" fill-rule="evenodd"/><path d="M346.956 631.989 302 631.989 302 631.494 346.956 631.494 346.956 631.989Z" fill-rule="evenodd"/><path d="M346.956 672.472 346.956 631.494 347.456 631.989 347.956 631.989 347.956 671.978 347.456 671.978 346.956 672.472Z" fill-rule="evenodd"/><path d="M347.956 631.989 347.456 631.989 346.956 631.494 347.956 631.494 347.956 631.989Z" fill-rule="evenodd"/><path d="M302 672.472 301.5 671.978 302 671.978 302 672.472Z" fill-rule="evenodd"/><path d="M346.956 672.472 302 672.472 302 671.978 346.956 671.978 346.956 672.472Z" fill-rule="evenodd"/><path d="M347.956 672.472 346.956 672.472 347.456 671.978 347.956 671.978 347.956 672.472Z" fill-rule="evenodd"/><path d="M279 673 370.977 673" stroke="#000000" stroke-width="2" stroke-linejoin="round" stroke-miterlimit="10" fill="none" fill-rule="evenodd"/><path d="M325.5 624.967 324.5 624.967 324.5 600 325.5 600 325.5 624.967Z" fill-rule="evenodd"/><path d="M325 630.942 321 622.976 324.5 622.976 324.5 624.967 328 624.967 325 630.942Z" fill-rule="evenodd"/><path d="M328 624.967 325.5 624.967 325.5 622.976 329 622.976 328 624.967Z" fill-rule="evenodd"/><text font-family="Times New Roman,Times New Roman_MSFontService,sans-serif" font-weight="400" font-size="14" transform="translate(196.32 703)">A<tspan font-size="14" x="126.08" y="0">B</tspan><tspan font-size="14" x="272" y="0">C</tspan><tspan font-size="14" x="412.959" y="0">D</tspan></text></g></svg>