<svg width="893" height="366" xmlns="http://www.w3.org/2000/svg" xmlns:xlink="http://www.w3.org/1999/xlink" overflow="hidden"><defs><clipPath id="clip0"><rect x="208" y="133" width="893" height="366"/></clipPath></defs><g clip-path="url(#clip0)" transform="translate(-208 -133)"><text font-family="DengXian,DengXian_MSFontService,sans-serif" font-weight="400" font-size="24" transform="translate(606.513 192)">寻物启事<tspan font-size="24" x="-331.58" y="72">本人不慎于</tspan><tspan fill="#4472C4" font-size="24" x="-211.58" y="72">202</tspan><tspan fill="#4472C4" font-size="24" x="-173.58" y="72">2</tspan><tspan fill="#4472C4" font-size="24" x="-160.913" y="72">年</tspan><tspan fill="#4472C4" font-size="24" x="-136.913" y="72">9</tspan><tspan fill="#4472C4" font-size="24" x="-124.247" y="72">月</tspan><tspan fill="#4472C4" font-size="24" x="-100.247" y="72">1</tspan><tspan fill="#4472C4" font-size="24" x="-87.58" y="72">日</tspan>于<tspan fill="#4472C4" font-size="24" x="-39.58" y="72">学校食堂</tspan>丢失<tspan fill="#4472C4" font-size="24" x="104.42" y="72">一</tspan><tspan fill="#4472C4" font-size="24" x="128.42" y="72">只蓝色书包</tspan>，内有<tspan fill="#4472C4" font-size="24" x="320.42" y="72">10</tspan><tspan fill="#4472C4" font-size="24" x="345.753" y="72">元人民币，</tspan><tspan fill="#4472C4" font-size="24" x="-383.58" y="144">一个笔袋和三本教科书</tspan>。如有人拾到，请与<tspan fill="#4472C4" font-size="24" x="72.42" y="144">三年二班王小明</tspan>联系，必有重谢。<tspan font-size="24" x="-331.58" y="216">联系</tspan>电话：<tspan fill="#4472C4" font-size="24" x="-211.58" y="216">911xxxxxxx</tspan><tspan fill="#4472C4" font-size="24" x="407.587" y="256">王小</tspan><tspan fill="#4472C4" font-size="24" x="455.587" y="256">明</tspan><tspan fill="#4472C4" font-size="24" x="331.587" y="285">2022</tspan><tspan fill="#4472C4" font-size="24" x="382.253" y="285">年</tspan><tspan fill="#4472C4" font-size="24" x="406.253" y="285">9</tspan><tspan fill="#4472C4" font-size="24" x="418.92" y="285">月</tspan><tspan fill="#4472C4" font-size="24" x="442.92" y="285">1</tspan><tspan fill="#4472C4" font-size="24" x="455.587" y="285">日</tspan><tspan fill="#FF0000" font-size="24" x="110.966" y="-1">标题居中</tspan><tspan fill="#FF0000" font-size="24" x="-162.004" y="106">时间</tspan><tspan fill="#FF0000" font-size="24" x="-10.0042" y="106">地点</tspan><tspan fill="#FF0000" font-size="24" x="167.996" y="106">丢失物品</tspan><tspan fill="#FF0000" font-size="24" x="102.723" y="175">交还方式</tspan><tspan fill="#FF0000" font-size="24" x="-81.0346" y="215">联系方式</tspan><tspan fill="#FF0000" font-size="24" x="331.087" y="216">署名</tspan><tspan fill="#FF0000" font-size="24" x="379.087" y="216">&amp;</tspan><tspan fill="#FF0000" font-size="24" x="397.087" y="216">日期</tspan></text></g></svg>